<?xml version="1.0" standalone="no"?><!DOCTYPE svg PUBLIC "-//W3C//DTD SVG 1.1//EN" "http://www.w3.org/Graphics/SVG/1.1/DTD/svg11.dtd"><svg t="1541780717841" class="icon" style="" viewBox="0 0 1024 1024" version="1.1" xmlns="http://www.w3.org/2000/svg" p-id="2493" xmlns:xlink="http://www.w3.org/1999/xlink" width="200" height="200"><defs><style type="text/css"></style></defs><path d="M512 296.96m-92.16 0a92.16 92.16 0 1 0 184.32 0 92.16 92.16 0 1 0-184.32 0Z" p-id="2494"></path><path d="M798.72 450.56H225.28c-20.48 0-28.672 25.6-11.264 36.864L363.52 583.68c7.168 5.12 11.264 14.336 8.192 22.528l-56.32 187.392c-6.144 20.48 20.48 34.816 35.84 19.456l145.408-153.6c8.192-9.216 22.528-9.216 30.72 0l145.408 153.6c14.336 15.36 40.96 1.024 35.84-19.456l-56.32-187.392c-2.048-8.192 1.024-17.408 8.192-22.528l149.504-96.256c17.408-11.264 9.216-36.864-11.264-36.864z" p-id="2495"></path></svg>