<?xml version="1.0" standalone="no"?><!DOCTYPE svg PUBLIC "-//W3C//DTD SVG 1.1//EN" "http://www.w3.org/Graphics/SVG/1.1/DTD/svg11.dtd"><svg t="1541777688064" class="icon" style="" viewBox="0 0 1024 1024" version="1.1" xmlns="http://www.w3.org/2000/svg" p-id="10595" xmlns:xlink="http://www.w3.org/1999/xlink" width="128" height="128"><defs><style type="text/css"></style></defs><path d="M512 1015.808c-13.312 0-26.624-3.584-38.4-10.24l-370.176-212.992c-23.552-13.824-38.4-39.424-38.4-66.56V298.496c0-27.648 14.848-52.736 38.4-66.56L473.6 18.432c23.552-13.824 53.248-13.824 76.8 0l370.176 213.504c23.552 13.824 38.4 39.424 38.4 66.56v427.008c0 27.648-14.848 52.736-38.4 66.56l-370.176 213.504c-11.776 7.168-25.088 10.24-38.4 10.24z m0-956.928c-4.608 0-8.704 1.024-12.8 3.584L129.024 275.968c-8.192 4.608-12.8 12.8-12.8 22.528v427.52c0 9.216 4.608 17.92 12.8 22.528l370.176 212.992c8.192 4.608 17.408 4.608 25.6 0l370.176-213.504c8.192-4.608 12.8-12.8 12.8-22.528V298.496c0-9.216-4.608-17.92-12.8-22.528l-370.176-213.504c-4.096-2.048-8.192-3.584-12.8-3.584z" fill="#e6e6e6" p-id="10596"></path><path d="M512 826.88c-14.336 0-25.6-11.264-25.6-25.6v-250.368c0-14.336 11.264-25.6 25.6-25.6s25.6 11.264 25.6 25.6v250.368c0 14.336-11.264 25.6-25.6 25.6z" fill="#e6e6e6" p-id="10597"></path><path d="M512 576.512c-8.192 0-15.872-3.584-20.992-10.752-8.192-11.776-5.12-27.648 6.144-35.84l204.8-143.36c11.776-8.192 27.648-5.12 35.84 6.144 8.192 11.776 5.12 27.648-6.144 35.84l-204.8 143.36c-4.608 3.072-9.728 4.608-14.848 4.608z" fill="#e6e6e6" p-id="10598"></path><path d="M512 576.512c-5.12 0-10.24-1.536-14.848-4.608l-204.8-143.36c-11.776-8.192-14.336-24.064-6.144-35.84 8.192-11.776 24.064-14.336 35.84-6.144l204.8 143.36c11.776 8.192 14.336 24.064 6.144 35.84-5.12 7.168-12.8 10.752-20.992 10.752z" fill="#e6e6e6" p-id="10599"></path></svg>